<svg xmlns="http://www.w3.org/2000/svg" width="198.818" height="36.354"><g id="Group_11515" data-name="Group 11515" transform="translate(-27.745 -18.118)"><g id="Group_11513" data-name="Group 11513" transform="translate(27.745 18.118)"><g id="Group_60" data-name="Group 60"><path id="Path_85" fill="#fcc000" d="M50.306 0c5.307 0 9.61 3.757 9.61 8.393 0 3.754-2.823 6.933-6.77 8.02-.177-.177-4.871-4.636-5.034-4.8L48.09 0" data-name="Path 85" transform="translate(-40.648)"/><path id="Subtraction_5" fill="#ff025f" d="M0 20.706h6.888V0H0Z" data-name="Subtraction 5" transform="translate(0 7.36)"/><path id="Path_87" fill="#00acff" d="M5217.309 1089.238h6.888v-2.792l.017-3.946Z" data-name="Path 87" transform="translate(-5217.309 -1082.5)"/><g id="Group_57" fill="#6d02da" data-name="Group 57" transform="translate(3.299 12.388)"><path id="Path_88" d="M.008 0h5.956l.043 9.425L0 15.226Z" data-name="Path 88" transform="rotate(134 5.318 8.499)"/><path id="Path_89" d="M.529 0 0 4.472l4.469-.532Z" data-name="Path 89" transform="rotate(-91 13.42 2.157)"/></g></g></g><g id="Group_11518" fill="#313131" data-name="Group 11518" transform="translate(60.787 23.807)"><path id="Path_3937" d="m10.939 25.829-4.848-8.423H3.454v8.424H0V4.77h7.272a9.05 9.05 0 0 1 4.106.848 5.9 5.9 0 0 1 2.515 2.273 6.2 6.2 0 0 1 .833 3.182 6.3 6.3 0 0 1-1.2 3.742A6.08 6.08 0 0 1 9.848 17.1l5.212 8.727ZM3.454 14.648h3.818a4 4 0 0 0 2.924-.97 3.5 3.5 0 0 0 .985-2.606 3.37 3.37 0 0 0-.97-2.56 4.12 4.12 0 0 0-2.939-.924H3.454Z" data-name="Path 3937" transform="translate(0 -3.406)"/><path id="Path_3938" d="M67.159 35.245a7.73 7.73 0 0 1-3-3.03 9.14 9.14 0 0 1-1.091-4.53 8.97 8.97 0 0 1 1.121-4.515 7.75 7.75 0 0 1 3.06-3.03 9.38 9.38 0 0 1 8.666 0 7.75 7.75 0 0 1 3.06 3.03 8.97 8.97 0 0 1 1.125 4.515 8.8 8.8 0 0 1-1.154 4.515 7.97 7.97 0 0 1-3.136 3.045 9.04 9.04 0 0 1-4.379 1.076 8.55 8.55 0 0 1-4.272-1.076m6.772-2.56a4.85 4.85 0 0 0 1.894-1.909 6.14 6.14 0 0 0 .727-3.09 6.27 6.27 0 0 0-.7-3.076 4.7 4.7 0 0 0-1.848-1.894 5.06 5.06 0 0 0-2.485-.637 4.97 4.97 0 0 0-2.47.637 4.54 4.54 0 0 0-1.8 1.894 6.5 6.5 0 0 0-.667 3.076 5.86 5.86 0 0 0 1.379 4.166 4.56 4.56 0 0 0 3.469 1.47 5.14 5.14 0 0 0 2.5-.636" data-name="Path 3938" transform="translate(-45.039 -13.625)"/><path id="Path_3939" d="M140.48 6.227a7.45 7.45 0 0 1 3.409-.773 7.7 7.7 0 0 1 4 1.061 7.46 7.46 0 0 1 2.818 3.015 9.45 9.45 0 0 1 1.03 4.47 9.6 9.6 0 0 1-1.03 4.5 7.7 7.7 0 0 1-2.833 3.09 7.93 7.93 0 0 1-7.424.348A6.6 6.6 0 0 1 138.071 20v2.424h-3.454V0h3.454v8.212a6.55 6.55 0 0 1 2.409-1.985m7.03 4.788a4.9 4.9 0 0 0-1.879-1.909 5.05 5.05 0 0 0-2.5-.651 4.9 4.9 0 0 0-2.47.667 4.96 4.96 0 0 0-1.879 1.939 6.04 6.04 0 0 0-.712 3 6.13 6.13 0 0 0 .712 3.015 4.93 4.93 0 0 0 4.348 2.621 4.87 4.87 0 0 0 2.5-.682 5.03 5.03 0 0 0 1.879-1.985 6.2 6.2 0 0 0 .712-3.03 5.97 5.97 0 0 0-.712-2.985" data-name="Path 3939" transform="translate(-96.135)"/><path id="Path_3940" d="M206.653 35.245a7.73 7.73 0 0 1-3-3.03 9.14 9.14 0 0 1-1.091-4.53 8.97 8.97 0 0 1 1.121-4.515 7.75 7.75 0 0 1 3.06-3.03 9.38 9.38 0 0 1 8.666 0 7.75 7.75 0 0 1 3.06 3.03 8.97 8.97 0 0 1 1.121 4.515 8.8 8.8 0 0 1-1.15 4.515 7.97 7.97 0 0 1-3.136 3.045 9.04 9.04 0 0 1-4.379 1.076 8.55 8.55 0 0 1-4.272-1.076m6.772-2.56a4.85 4.85 0 0 0 1.894-1.909 6.14 6.14 0 0 0 .727-3.09 6.27 6.27 0 0 0-.7-3.076 4.7 4.7 0 0 0-1.848-1.894 5.06 5.06 0 0 0-2.485-.637 4.97 4.97 0 0 0-2.47.637 4.54 4.54 0 0 0-1.8 1.894 6.5 6.5 0 0 0-.667 3.076 5.86 5.86 0 0 0 1.379 4.166 4.56 4.56 0 0 0 3.469 1.47 5.14 5.14 0 0 0 2.5-.636" data-name="Path 3940" transform="translate(-144.657 -13.625)"/><path id="Path_3941" d="M281.4 19.853a6.6 6.6 0 0 1 2.348 1.924v-2.424h3.485v16.968a8.5 8.5 0 0 1-.97 4.106 7 7 0 0 1-2.8 2.833 8.8 8.8 0 0 1-4.378 1.03 9.5 9.5 0 0 1-5.636-1.591 5.87 5.87 0 0 1-2.545-4.318h3.424a3.72 3.72 0 0 0 1.682 2.106 5.7 5.7 0 0 0 3.076.8 4.6 4.6 0 0 0 3.378-1.273 4.97 4.97 0 0 0 1.287-3.7v-2.78a7 7 0 0 1-2.378 1.985 7.1 7.1 0 0 1-3.409.8 7.47 7.47 0 0 1-3.985-1.106 7.8 7.8 0 0 1-2.848-3.091 9.5 9.5 0 0 1-1.045-4.5 9.24 9.24 0 0 1 1.045-4.454 7.62 7.62 0 0 1 6.833-4.091 7.4 7.4 0 0 1 3.439.773m1.637 4.833a5 5 0 0 0-1.864-1.939 4.9 4.9 0 0 0-2.484-.667 4.97 4.97 0 0 0-2.485.651 4.9 4.9 0 0 0-1.864 1.909 5.96 5.96 0 0 0-.712 2.985 6.2 6.2 0 0 0 .712 3.03 5 5 0 0 0 1.879 1.985 4.8 4.8 0 0 0 2.47.682 4.87 4.87 0 0 0 2.484-.667 4.97 4.97 0 0 0 1.864-1.954 6.13 6.13 0 0 0 .712-3.015 6.05 6.05 0 0 0-.712-3" data-name="Path 3941" transform="translate(-192.876 -13.626)"/><path id="Path_3942" d="M358.283 28.989h-12.757a4.63 4.63 0 0 0 1.485 3.212 4.69 4.69 0 0 0 3.273 1.212 4.04 4.04 0 0 0 3.939-2.333h3.727a7.52 7.52 0 0 1-2.742 3.773 8.05 8.05 0 0 1-4.924 1.469A8.5 8.5 0 0 1 346 35.246a7.65 7.65 0 0 1-2.97-3.03 9.24 9.24 0 0 1-1.075-4.53 9.46 9.46 0 0 1 1.045-4.53 7.35 7.35 0 0 1 2.939-3.015 8.75 8.75 0 0 1 4.348-1.061 8.5 8.5 0 0 1 4.212 1.03 7.3 7.3 0 0 1 2.875 2.89 8.7 8.7 0 0 1 1.03 4.288 11 11 0 0 1-.122 1.7M354.8 26.2a3.93 3.93 0 0 0-1.364-3.06 4.88 4.88 0 0 0-3.3-1.151 4.43 4.43 0 0 0-3.06 1.136 4.75 4.75 0 0 0-1.515 3.076Z" data-name="Path 3942" transform="translate(-244.201 -13.626)"/><path id="Path_3943" d="M417.241 6.227a7.45 7.45 0 0 1 3.409-.773 7.7 7.7 0 0 1 4 1.061 7.46 7.46 0 0 1 2.818 3.015A9.44 9.44 0 0 1 428.5 14a9.6 9.6 0 0 1-1.03 4.5 7.7 7.7 0 0 1-2.833 3.09 7.93 7.93 0 0 1-7.424.348A6.6 6.6 0 0 1 414.832 20v2.424h-3.454V0h3.454v8.212a6.55 6.55 0 0 1 2.409-1.985m7.03 4.788a4.9 4.9 0 0 0-1.878-1.909 5.05 5.05 0 0 0-2.5-.651 4.9 4.9 0 0 0-2.47.667 4.96 4.96 0 0 0-1.878 1.939 6.05 6.05 0 0 0-.712 3 6.13 6.13 0 0 0 .712 3.015 4.93 4.93 0 0 0 4.348 2.621 4.9 4.9 0 0 0 2.5-.682 5.03 5.03 0 0 0 1.878-1.985 6.2 6.2 0 0 0 .712-3.03 5.96 5.96 0 0 0-.712-2.985" data-name="Path 3943" transform="translate(-293.781)"/><path id="Path_3944" d="M488.715 19.792a5.97 5.97 0 0 1 2.985-.712v3.576h-.879a4.2 4.2 0 0 0-3.076 1.03 4.93 4.93 0 0 0-1.045 3.576v8.787h-3.454v-16.7h3.454v2.424a5.4 5.4 0 0 1 2.015-1.985" data-name="Path 3944" transform="translate(-345.105 -13.626)"/><path id="Path_3945" d="M520.966 23.171a7.62 7.62 0 0 1 6.834-4.091 7.3 7.3 0 0 1 3.439.773 7 7 0 0 1 2.348 1.924v-2.424h3.485v16.7h-3.485v-2.489a6.9 6.9 0 0 1-2.394 1.97 7.75 7.75 0 0 1-7.393-.318 7.84 7.84 0 0 1-2.833-3.091 9.5 9.5 0 0 1-1.045-4.5 9.24 9.24 0 0 1 1.045-4.454m11.908 1.515a5 5 0 0 0-1.864-1.939 4.9 4.9 0 0 0-2.484-.667 4.97 4.97 0 0 0-2.485.651 4.9 4.9 0 0 0-1.863 1.909 5.96 5.96 0 0 0-.712 2.985 6.2 6.2 0 0 0 .712 3.03 5 5 0 0 0 1.878 1.985 4.8 4.8 0 0 0 2.47.682 4.9 4.9 0 0 0 2.484-.667 4.97 4.97 0 0 0 1.864-1.954 6.14 6.14 0 0 0 .712-3.015 6.05 6.05 0 0 0-.712-3" data-name="Path 3945" transform="translate(-371.296 -13.626)"/></g></g></svg>